<svg width="182" height="124" viewBox="0 0 182 124" fill="none" xmlns="http://www.w3.org/2000/svg">
<path d="M51.7859 91.7151C51.7859 91.7151 41.5798 95.6871 42.6068 104.814C43.6337 113.94 48.4438 119.048 90.1459 114.355C128.805 110.005 136.448 104.91 135.621 97.5571C134.793 90.2059 131.659 85.1676 122.262 83.7849C122.262 83.7849 124.239 67.1333 105.657 65.1161C105.657 65.1161 102.185 50.2315 86.1679 49.3391C86.1679 49.3391 90.0355 55.1942 84.1859 57.3915C78.3365 59.5905 62.0529 59.7531 65.3098 71.582C65.3098 71.582 47.5058 73.0712 51.7859 91.7151Z" fill="#FFBD00"/>
<path opacity="0.5" d="M51.7859 91.7151C51.7859 91.7151 41.5798 95.6871 42.6068 104.814C43.6337 113.94 48.4438 119.048 90.1459 114.355C128.805 110.005 136.448 104.91 135.621 97.5571C134.793 90.2059 131.659 85.1676 122.262 83.7849C122.262 83.7849 124.239 67.1333 105.657 65.1161C105.657 65.1161 102.185 50.2315 86.1679 49.3391C86.1679 49.3391 90.0355 55.1942 84.1859 57.3915C78.3365 59.5905 62.0529 59.7531 65.3098 71.582C65.3098 71.582 47.5058 73.0712 51.7859 91.7151Z" fill="#512626"/>
<path d="M100.638 92.2904C107.663 88.8763 114.825 86.1562 122.263 83.7818C116.391 89.04 108.492 92.0249 100.638 92.2904Z" fill="#263238"/>
<path d="M51.7861 91.7129C66.0678 95.0918 80.7426 94.2804 95.2816 93.4677C82.1235 97.5471 64.2496 98.1647 51.7861 91.7129Z" fill="#263238"/>
<path d="M80.594 72.8234C89.0508 70.4071 97.9629 69.6275 105.656 65.1149C100.57 72.1065 88.6781 73.8827 80.594 72.8234Z" fill="#263238"/>
<path d="M65.3096 71.5801C69.101 71.8213 72.6333 72.0669 76.3427 72.9308C72.6529 73.7096 68.6578 73.3921 65.3096 71.5801Z" fill="#263238"/>
<path d="M116.139 65.042C114.026 63.5936 111.423 62.3242 110.12 60.0159C108.828 57.5261 109.296 54.5341 110.626 52.2023L112.784 47.5207C113.548 46.066 113.745 44.4567 113.288 42.9376C112.883 41.2771 111.51 40.2083 110.458 38.9513C109.36 37.5242 108.693 35.6237 109.095 33.8029C109.51 32.027 110.742 30.7394 111.718 29.2789C111.133 30.6277 109.954 32.511 109.741 33.9219C109.482 35.5233 110.151 37.1408 111.197 38.3556C112.444 39.6172 113.85 40.8146 114.358 42.604C114.949 44.3825 114.676 46.425 113.85 48.0174L111.654 52.6802C110.887 54.2146 110.178 55.5822 110.372 57.3077C110.378 60.8945 113.83 62.7857 116.139 65.042Z" fill="#263238"/>
<path d="M55.5277 32.6406C57.6414 34.0889 60.2442 35.3583 61.5454 37.6669C62.8373 40.1567 62.3689 43.1487 61.0392 45.4805L58.8813 50.162C58.1176 51.6168 57.92 53.2261 58.377 54.7452C58.782 56.4056 60.1554 57.4744 61.2076 58.7298C62.3055 60.157 62.9723 62.0575 62.5705 63.8782C62.1555 65.6557 60.9231 66.9417 59.9467 68.4022C60.5323 67.0535 61.7107 65.1702 61.9223 63.7594C62.1818 62.158 61.5121 60.5405 60.4662 59.3257C59.2199 58.0641 57.8139 56.8667 57.3051 55.0774C56.7148 53.2988 56.9875 51.2563 57.8135 49.6639L60.0099 45.0012C60.7763 43.4668 61.4853 42.0992 61.2912 40.3736C61.2895 36.7881 57.8363 34.8953 55.5277 32.6406Z" fill="#263238"/>
<path d="M115.155 38.0663C117.268 39.5147 119.871 40.7841 121.174 43.0925C122.466 45.5823 121.997 48.5743 120.666 50.9062L118.508 55.5878C117.745 57.0426 117.547 58.6518 118.004 60.1709C118.407 61.8316 119.782 62.9002 120.835 64.1573C121.933 65.5844 122.599 67.4849 122.198 69.3056C121.783 71.0832 120.55 72.3692 119.574 73.8297C120.159 72.4809 121.338 70.5976 121.549 69.1851C121.809 67.5838 121.139 65.9663 120.093 64.7515C118.847 63.4899 117.441 62.2925 116.932 60.5032C116.342 58.7247 116.615 56.682 117.44 55.0897L119.637 50.4269C120.403 48.8925 121.112 47.5249 120.918 45.7994C120.917 42.2155 117.463 40.3227 115.155 38.0663Z" fill="#263238"/>
<path d="M50.2652 54.8274C53.4161 56.8104 57.3159 59.015 57.0978 63.2915C57.17 64.5794 56.6353 65.9539 56.0872 67.0471C55.2413 68.9476 53.7261 71.8045 52.9753 73.6529C52.2334 75.8458 52.9269 78.4095 54.6224 80.2108C51.8951 78.3636 51.17 74.4462 52.7426 71.5994C53.1973 70.5282 54.5178 67.6453 55.0246 66.5517C55.5848 65.4472 55.9885 64.4958 56.0086 63.2785C56.0379 62.1428 55.8408 60.9499 55.3697 59.9217C54.1925 57.9662 51.9412 56.4408 50.2652 54.8274Z" fill="#263238"/>
<path d="M89.0298 40.6233C85.8789 38.6403 81.979 36.4357 82.1954 32.1594C82.1233 30.8715 82.658 29.497 83.2062 28.4038C84.0536 26.5031 85.5672 23.6464 86.3181 21.798C87.0599 19.6051 86.3665 17.043 84.6709 15.2401C87.3981 17.0873 88.1233 21.0047 86.5507 23.8515C86.096 24.9227 84.7755 27.8056 84.2686 28.8992C83.7085 30.0037 83.3048 30.9551 83.2847 32.1724C83.2554 33.3081 83.4525 34.501 83.9238 35.5308C85.1008 37.4846 87.3538 39.01 89.0298 40.6233Z" fill="#263238"/>
<path d="M16.1528 70.7507C16.0521 70.9396 15.873 71.0039 15.6155 70.9436C15.471 70.913 15.237 70.8086 14.9136 70.6307C13.9558 70.1037 13.1156 69.6577 12.3932 69.2927C11.2908 68.735 10.155 68.1344 8.9857 67.4911L5.40318 65.5198C5.30367 65.4651 5.23387 65.3697 5.19378 65.2336C5.1604 65.085 5.17056 64.9603 5.22426 64.8596C5.70753 63.9531 6.04936 63.327 6.24974 62.9814L7.00339 61.613C7.20476 61.2353 7.52793 60.599 7.9729 59.704C8.2021 59.2439 8.59526 58.4914 9.15237 57.4464C9.56181 56.6784 10.0075 56.0687 10.4894 55.6175C11.0892 55.0356 11.7688 54.6361 12.5281 54.4188C13.3937 54.2438 14.3178 54.4266 15.3006 54.9673C16.9177 55.8571 17.887 56.936 18.2085 58.2039C18.4832 59.3483 18.2313 60.6507 17.4527 62.1112L16.2545 64.3585C16.6277 64.5639 16.8449 64.6996 16.9061 64.7659C16.9932 64.8138 17.052 64.8543 17.0826 64.8874C17.1132 64.9206 17.1348 64.9406 17.1472 64.9474C17.1845 64.9679 17.2285 64.9759 17.2793 64.9712L17.5405 65.115L17.8032 65.2107L17.9338 65.2825C18.2697 65.4673 18.4658 65.6729 18.5221 65.8993C18.5382 65.9896 18.519 66.1012 18.4643 66.2339C18.4164 66.3541 18.3554 66.4834 18.2816 66.6219L17.7379 67.6417L17.4747 68.1807C17.2176 68.7232 17.0019 69.1581 16.8273 69.4854L16.1528 70.7507ZM14.7786 62.374C14.886 62.1726 14.7618 61.8925 14.406 61.5339C14.1669 61.2884 13.7622 60.9762 13.1919 60.5973C12.9001 60.4204 12.5552 60.2225 12.1571 60.0034L11.9892 59.911C11.7155 59.7604 11.4375 59.6482 11.1552 59.5742C10.7484 59.4319 10.4426 59.402 10.2376 59.4846C10.1036 59.5248 10.0064 59.6016 9.94594 59.7149C9.89224 59.8156 9.90745 59.938 9.99157 60.082C10.179 60.3642 10.5606 60.7045 11.1366 61.1028C11.4513 61.3574 11.7331 61.5532 11.9819 61.69C12.5205 62.0678 13.3061 62.5408 14.3386 63.1089C14.3386 63.1089 14.3481 63.106 14.3673 63.1003C14.3807 63.0751 14.3941 63.0499 14.4076 63.0247C14.4267 63.019 14.4698 62.9532 14.537 62.8273L14.7786 62.374Z" fill="black"/>
<path d="M27.1497 53.7129C27.0791 53.8022 26.9709 53.916 26.8252 54.0543C26.7414 54.1145 26.6332 54.2283 26.5008 54.3957C26.1653 54.8199 25.6565 55.2682 24.9745 55.7406L24.8818 55.8578C24.82 55.936 24.7317 56.0017 24.6169 56.0551C24.5772 56.0594 24.5386 56.0739 24.501 56.0984C24.4525 56.1139 24.394 56.1305 24.3256 56.1482L23.8488 56.3381C23.3963 56.5202 22.9029 56.6049 22.3687 56.5921C21.8234 56.5703 21.2848 56.4713 20.7528 56.2951C19.7638 55.9855 18.8774 55.5117 18.0937 54.8737C17.2217 54.1639 16.524 53.3023 16.0007 52.2892C15.4509 51.2177 15.1792 50.1617 15.1857 49.121C15.19 47.9685 15.532 46.9624 16.2118 46.1028C16.4237 45.8349 16.598 45.6374 16.7349 45.5102C16.7128 45.4923 16.715 45.4665 16.7415 45.4331L16.7812 45.3828C17.3992 44.6014 17.9786 43.9262 18.5193 43.3571C19.0116 42.8954 19.5556 42.54 20.1516 42.2912C21.4429 41.8744 22.5908 41.7537 23.5952 41.929C24.6946 42.145 25.7686 42.6798 26.8172 43.5334C27.8659 44.3871 28.6497 45.4379 29.1686 46.6861L29.3011 47.0692C29.332 47.1678 29.3431 47.2226 29.3342 47.2338L29.3773 47.3514L29.3508 47.5225C29.6777 48.5776 29.584 49.6941 29.0698 50.872C28.6902 51.6273 28.0502 52.5742 27.1497 53.7129ZM26.133 52.4173C26.2124 52.3169 26.2135 52.1893 26.1362 52.0347C26.0435 51.739 25.7454 51.3128 25.2421 50.7563C25.1515 50.6642 24.9528 50.4566 24.646 50.1334C24.3391 49.8102 24.041 49.5217 23.7518 49.2679C23.0365 48.6123 22.5906 48.2125 22.4139 48.0688L21.9006 47.6509C21.5033 47.3275 21.1478 47.0657 20.8343 46.8655C20.3553 46.5306 19.9435 46.3055 19.5992 46.1904C19.3872 46.183 19.2592 46.2072 19.2151 46.263C19.1268 46.3747 19.1257 46.5481 19.2118 46.7834C19.298 47.0186 19.5397 47.3439 19.9371 47.7591L22.3083 50.2673L22.8547 50.7121C23.3448 51.056 23.6616 51.2863 23.8051 51.4032L24.2289 51.6932L24.7985 52.0742C24.8868 52.1461 24.9729 52.1978 25.0568 52.2294L25.8151 52.5439C25.8681 52.5687 25.9233 52.5678 25.9807 52.5411C26.0469 52.5032 26.0977 52.462 26.133 52.4173Z" fill="black"/>
<path d="M37.1682 43.027C37.0829 43.102 36.9563 43.1942 36.7885 43.3037C36.6952 43.3477 36.5687 43.4399 36.4087 43.5805C36.0035 43.9366 35.4234 44.2849 34.6685 44.6255L34.5566 44.7239C34.4819 44.7895 34.3834 44.8381 34.261 44.8697C34.2211 44.8668 34.1805 44.8739 34.1392 44.8912C34.0887 44.8976 34.0282 44.9033 33.9577 44.9083L33.4548 45.0084C32.9771 45.1052 32.4765 45.0988 31.9529 44.9892C31.4201 44.8687 30.9073 44.6734 30.4148 44.4035C29.496 43.9194 28.7072 43.2925 28.0485 42.5228C27.3156 41.6663 26.7812 40.6925 26.4452 39.6012C26.0934 38.4478 26.0127 37.3601 26.203 36.3381C26.411 35.2056 26.9255 34.2785 27.7466 33.5569C28.0026 33.332 28.2091 33.1694 28.3663 33.0693C28.3477 33.0476 28.3545 33.0227 28.3865 32.9946L28.4344 32.9524C29.1809 32.2964 29.8706 31.7377 30.5035 31.2765C31.0697 30.9119 31.6681 30.6614 32.2987 30.525C33.6435 30.3498 34.7948 30.4397 35.7525 30.7947C36.7965 31.2068 37.7592 31.9278 38.6405 32.9577C39.5219 33.9875 40.1076 35.1633 40.3978 36.4848L40.4605 36.8855C40.4735 36.9881 40.4747 37.044 40.464 37.0534L40.4856 37.1769L40.4293 37.3403C40.5645 38.4371 40.2749 39.5179 39.5605 40.5826C39.0534 41.2562 38.2559 42.071 37.1682 43.027ZM36.3964 41.5684C36.4924 41.484 36.516 41.3588 36.4673 41.1927C36.4283 40.8851 36.2102 40.412 35.8131 39.7733C35.7402 39.6663 35.5813 39.4261 35.3364 39.0525C35.0915 38.679 34.8491 38.3412 34.6092 38.0391C34.021 37.2644 33.6527 36.7903 33.5043 36.6169L33.0729 36.1128C32.7389 35.7225 32.4353 35.4005 32.1621 35.1468C31.7497 34.7304 31.3842 34.4343 31.0656 34.2585C30.8583 34.2127 30.728 34.2133 30.6746 34.2601C30.568 34.3539 30.5363 34.5242 30.5795 34.7712C30.6226 35.0181 30.8031 35.3819 31.1209 35.8623L33.0116 38.7594L33.4708 39.296C33.8925 39.7232 34.1636 40.0073 34.2842 40.1482L34.6502 40.5104L35.1435 40.9885C35.2177 41.0753 35.2933 41.1418 35.3703 41.1881L36.0611 41.6351C36.1089 41.6691 36.1634 41.6782 36.2246 41.6624C36.2965 41.6372 36.3538 41.6059 36.3964 41.5684Z" fill="black"/>
<path d="M43.8272 36.8579C43.6453 36.9677 43.4587 36.93 43.2674 36.7449C43.1584 36.6436 43.0096 36.4329 42.8209 36.1125C42.262 35.1639 41.7636 34.3458 41.3257 33.6582C40.6578 32.6084 39.9828 31.5044 39.3006 30.3463L37.2103 26.7982C37.1522 26.6997 37.1402 26.5817 37.1743 26.4442C37.2205 26.2994 37.2922 26.1977 37.3892 26.1391C38.2625 25.6121 38.8726 25.2523 39.2194 25.0597L40.5585 24.2766C40.9223 24.057 41.5215 23.6787 42.356 23.1417C42.7854 22.8658 43.5035 22.4242 44.5102 21.8166C45.25 21.3701 45.9412 21.0782 46.5838 20.9409C47.3936 20.7528 48.1803 20.7624 48.9436 20.9697C49.7771 21.2682 50.4806 21.9042 51.054 22.8774C51.9975 24.479 52.288 25.9069 51.9253 27.1612C51.5846 28.2853 50.7108 29.2719 49.3038 30.121L47.1388 31.4276C47.3565 31.7971 47.4751 32.0262 47.4944 32.1148C47.5452 32.201 47.5754 32.2663 47.585 32.3106C47.5947 32.3548 47.6031 32.3831 47.6104 32.3955C47.6322 32.4324 47.6661 32.4621 47.7121 32.4844L47.8645 32.7431L48.0424 32.9614L48.1186 33.0907C48.3146 33.4234 48.3797 33.7014 48.314 33.9247C48.2824 34.0106 48.2096 34.0963 48.0955 34.1818C47.9936 34.26 47.876 34.3394 47.7426 34.4199L46.7601 35.0128L46.2616 35.3387C45.7667 35.6708 45.3616 35.932 45.0462 36.1223L43.8272 36.8579ZM46.869 28.9602C47.063 28.843 47.0973 28.5384 46.9718 28.0464C46.8898 27.7118 46.6989 27.2342 46.399 26.6135C46.2369 26.3105 46.0398 25.9619 45.8075 25.5677L45.7096 25.4014C45.5499 25.1303 45.3671 24.8899 45.1613 24.6801C44.883 24.3471 44.6347 24.163 44.4166 24.1276C44.2809 24.0926 44.1584 24.108 44.0493 24.1739C43.9522 24.2325 43.9036 24.3453 43.9034 24.5124C43.9224 24.8517 44.0794 25.3414 44.3744 25.9817C44.517 26.3632 44.6609 26.6772 44.806 26.9236C45.0792 27.5269 45.5171 28.3398 46.1195 29.3624C46.1195 29.3624 46.1292 29.3649 46.1485 29.3699C46.1728 29.3552 46.1971 29.3406 46.2213 29.326C46.2407 29.331 46.311 29.2969 46.4323 29.2237L46.869 28.9602Z" fill="black"/>
<path d="M63.4141 26.7557C62.8456 26.9271 62.3609 27.0582 61.9602 27.149C61.573 27.2358 61.196 27.2821 60.8291 27.2879C60.775 27.3042 60.7262 27.289 60.6829 27.2422C60.6355 27.1817 60.6009 27.1397 60.5793 27.1163C60.5454 27.0517 60.5142 26.9713 60.4858 26.8751C59.9938 25.5122 59.6002 24.4562 59.3047 23.7073C58.9687 22.8211 58.5993 21.6979 58.1968 20.338L58.0443 19.8228L57.8328 19.0337L57.5989 18.0942L57.4667 17.5729C57.4518 17.4727 57.4138 17.3195 57.3528 17.1134L57.121 16.3304C57.0438 16.0694 56.9997 15.8957 56.9888 15.8091C56.9766 15.7679 56.9976 15.7392 57.0518 15.7229C57.1736 15.6861 57.2738 15.626 57.3523 15.5425C57.3929 15.5303 57.4538 15.5119 57.535 15.4874C57.6257 15.4451 57.7069 15.4207 57.7787 15.414L61.251 14.3675C61.4946 14.2941 61.6794 14.2459 61.8053 14.2229L62.4206 14.0599C62.5695 14.0151 62.6818 13.9962 62.7577 14.0032C62.843 13.9925 62.9161 14.0153 62.977 14.0718C63.0298 14.1008 63.0813 14.175 63.1314 14.2946C63.1816 14.4141 63.229 14.5495 63.2737 14.7006L63.4079 15.1539C63.4486 15.2913 63.4838 15.3854 63.5136 15.4363L63.6173 15.7866C63.6471 15.8374 63.6742 15.9041 63.6986 15.9865L63.8613 16.6108C63.8884 16.7523 63.9406 16.9535 64.0179 17.2145C64.0626 17.3656 64.1067 17.4646 64.15 17.5114C64.211 17.5678 64.282 17.5838 64.3633 17.5593C64.3903 17.5511 64.454 17.517 64.5541 17.4569C64.5947 17.4447 64.6468 17.4215 64.7105 17.3873C64.7741 17.3532 64.8465 17.3239 64.9277 17.2994L65.1308 17.2382C65.2066 17.2453 65.3325 17.2223 65.5085 17.1693C65.5762 17.1489 65.6351 17.1237 65.6851 17.0936C65.7488 17.0595 65.8076 17.0342 65.8618 17.0179C65.9836 16.9812 66.0405 16.9491 66.0323 16.9216L65.6908 15.7677C65.6298 15.5616 65.5877 15.3947 65.5647 15.267L65.3939 14.6901C65.3667 14.5486 65.3166 14.3543 65.2434 14.107C65.1743 13.8734 65.1343 13.7134 65.1234 13.6269L65.0319 13.3178L65.1943 13.2689C65.2756 13.2444 65.308 13.2047 65.2918 13.1497L66.2665 12.856C66.6726 12.7336 66.9812 12.6555 67.1924 12.6218C67.5525 12.5432 67.8408 12.4713 68.0574 12.406L69.3245 11.9793C69.5194 11.8906 69.7658 11.8014 70.0636 11.7116L70.5916 11.5525C70.8623 11.4709 71.0532 11.4433 71.1642 11.4697C71.2752 11.4961 71.3633 11.6192 71.4283 11.839L71.9102 13.4669C71.9916 13.7416 72.0499 13.9634 72.0851 14.1324L72.2112 14.633C72.2763 14.8528 72.3603 15.1866 72.4634 15.6343L72.5468 15.9908L72.6647 16.3143L74.3952 22.9076C74.4074 22.9488 74.3933 23.0504 74.3527 23.2122C74.304 23.3466 74.2391 23.426 74.1578 23.4505L72.7364 23.8789C72.2085 24.038 71.6812 24.1744 71.1546 24.2883C70.8121 24.3765 70.3024 24.5226 69.6256 24.7266L69.2804 24.8307C69.0909 24.8878 68.9419 24.8579 68.8336 24.7409C68.7266 24.5786 68.6236 24.3553 68.5247 24.0709L67.3151 20.7321L67.1121 20.7933C66.7872 20.8912 66.5483 20.9557 66.3953 20.9869C66.2518 21.0002 66.18 21.0069 66.18 21.0069L65.3475 21.2578C65.2933 21.2741 65.2656 21.3049 65.2643 21.3502C65.2629 21.3955 65.2704 21.4456 65.2867 21.5005C65.2989 21.5417 65.309 21.5761 65.3172 21.6036L66.4456 25.4157C66.4578 25.4569 66.4632 25.5001 66.4619 25.5454C66.4565 25.577 66.4579 25.6065 66.466 25.634C66.4647 25.6793 66.4369 25.7101 66.3828 25.7264C66.3692 25.7305 66.351 25.7434 66.3279 25.7653C66.3049 25.7872 66.2752 25.8112 66.2386 25.8372C65.7377 25.9881 65.27 26.1515 64.8355 26.3273L63.4141 26.7557Z" fill="black"/>
<path d="M76.9173 23.0059C76.8892 23.0092 76.8648 22.9832 76.844 22.928C76.7306 22.8116 76.6418 22.6634 76.5777 22.4833C76.5272 22.4172 76.4811 22.3289 76.4395 22.2183C76.2827 21.9772 76.1492 21.6322 76.039 21.1834C75.9051 20.5354 75.8153 20.0193 75.7696 19.635C75.7353 19.4659 75.7004 19.2319 75.6649 18.933L75.604 18.4206C75.5532 17.9936 75.5065 17.66 75.4637 17.4197C75.4192 17.1652 75.3522 16.6608 75.2625 15.9064C75.0224 13.8854 74.8793 12.3219 74.8333 11.216C74.813 11.0452 75.0364 10.8887 75.5033 10.7465L76.6611 10.6088C77.461 10.5136 78.0591 10.4568 78.4554 10.4385C79.0498 10.4111 79.6488 10.3615 80.2522 10.2897C80.3925 10.273 80.4969 10.2533 80.5654 10.2307L80.8812 10.1932L80.9966 10.266C81.4478 10.1113 81.9173 9.99047 82.4051 9.90355C82.8929 9.81664 83.4876 9.73143 84.1893 9.64793C84.2173 9.64459 84.255 9.66177 84.3021 9.69946L84.9757 9.6193C85.088 9.60594 85.1798 9.65997 85.2512 9.78138C85.3365 9.90112 85.4147 10.0795 85.4855 10.3164C85.5636 10.4948 85.6328 10.7175 85.693 10.9846C85.7914 11.3337 85.8684 11.5627 85.924 11.6715C85.9714 12.07 85.9249 12.2777 85.7846 12.2944C85.7705 12.296 85.7469 12.2772 85.7138 12.2378L85.6271 12.2265C85.5552 12.2206 85.4789 12.2369 85.3981 12.2754C85.3189 12.3281 85.2303 12.3603 85.132 12.372C85.0478 12.382 84.9751 12.369 84.9139 12.333C84.8842 12.3221 84.8202 12.3225 84.7219 12.3342C84.5956 12.3492 84.4508 12.3881 84.2875 12.4509C84.2331 12.4718 84.1233 12.5065 83.9583 12.555C83.8073 12.6018 83.6266 12.6378 83.4161 12.6628C82.8127 12.7346 82.3793 12.8006 82.1161 12.8608C81.9634 12.8934 81.8211 12.9536 81.6893 13.0415L81.6842 12.9988C81.628 13.0055 81.5874 13.0825 81.5622 13.2298C81.4927 13.4835 81.4693 13.8255 81.492 14.2558C81.4932 14.3855 81.5031 14.5287 81.5217 14.6853C81.5403 14.8418 81.574 14.9461 81.6229 14.998C81.6858 15.0482 81.7733 15.0667 81.8856 15.0533C81.9698 15.0433 82.0366 15.0065 82.086 14.9429C82.114 14.9395 82.15 14.9425 82.1937 14.9517C82.2375 14.9609 82.2752 14.9781 82.3066 15.0032L84.0958 14.7903C84.1065 14.7602 84.125 14.7363 84.1514 14.7187C84.1778 14.7012 84.205 14.6907 84.233 14.6874C84.3734 14.6707 84.4812 14.6795 84.5564 14.7138C84.6457 14.7465 84.8191 14.7692 85.0768 14.7818C85.2171 14.7651 85.3204 14.7961 85.3867 14.8748C85.4687 14.9661 85.5148 15.0545 85.5249 15.1399L86.1344 16.4963C86.2036 16.719 86.0108 16.8935 85.5562 17.0198C85.2963 17.1084 84.7875 17.1978 84.0297 17.288L82.4931 17.4709C82.2966 17.4943 82.151 17.526 82.0561 17.5662C81.9596 17.5921 81.9023 17.6494 81.8844 17.7382C81.8367 17.816 81.8222 17.9332 81.8408 18.0898L81.8509 18.1752C81.8594 18.2463 81.8723 18.2953 81.8898 18.3221L81.9245 18.7943C81.9223 18.8956 81.9331 19.0459 81.9567 19.2451L82.0202 19.7789C82.6516 19.7037 83.2946 19.6055 83.9491 19.4843C84.5896 19.3648 85.2255 19.2675 85.857 19.1924C85.8991 19.1873 85.9384 19.2187 85.975 19.2866C86.0098 19.3402 86.0323 19.4097 86.0424 19.4951C86.0807 19.5771 86.1057 19.668 86.1175 19.7676C86.171 19.9777 86.2367 20.172 86.3148 20.3503L86.5358 20.9519L86.6144 21.6137L86.4638 21.7832L86.2533 21.8083C86.0989 21.8266 85.9998 21.8312 85.956 21.822C85.9105 21.7985 85.8597 21.7901 85.8036 21.7968C85.7772 21.8144 85.7377 21.8407 85.6849 21.8759C85.6322 21.911 85.5864 21.9453 85.5477 21.9788L85.535 21.8721L85.285 21.9235L84.9692 21.9611C84.9131 21.9677 84.8693 21.9585 84.8378 21.9334L84.6669 21.9321C84.1477 21.9939 83.7887 22.0871 83.5901 22.2118L76.9173 23.0059Z" fill="black"/>
<path d="M98.1274 22.5026C97.5348 21.8554 97.0344 21.2058 96.6261 20.5537C96.3348 20.1227 95.8892 19.3611 95.2891 18.2688L94.9561 17.6708C94.9427 17.6557 94.9289 17.6479 94.9148 17.6471C94.9154 17.6328 94.9158 17.6257 94.9158 17.6257L94.8099 17.6203L94.7232 17.6589C94.7004 17.8442 94.6699 18.3448 94.6319 19.1606C94.6072 19.6901 94.5499 20.3112 94.46 21.024L94.4088 21.6669C94.345 21.8215 94.306 21.8984 94.2919 21.8977L94.0801 21.8868C92.5217 21.9219 91.3895 21.9215 90.6836 21.8854L89.9635 21.8486C89.8082 21.8406 89.6956 21.8277 89.6256 21.8098L89.4774 21.8022L88.8309 21.5539L88.7955 21.4015C88.7673 21.4001 88.7475 21.3704 88.736 21.3124C88.7387 21.2551 88.7407 21.2122 88.742 21.1836C88.7277 20.5803 88.7128 20.142 88.6972 19.8686C88.6768 19.0929 88.6679 18.5257 88.6704 18.1672C88.6582 17.8223 88.6545 17.5997 88.6591 17.4995L88.6083 16.3134L88.6172 15.6682C88.6091 15.5387 88.6104 15.3594 88.621 15.1305L88.6301 14.9372C88.6616 14.8671 88.6811 14.7533 88.6884 14.5959L88.7055 14.231C88.7223 14.1744 88.7323 14.1104 88.7357 14.0388L88.7225 13.866L88.7325 13.6513C88.7372 13.5511 88.7267 13.4717 88.7012 13.413L88.7072 13.2842L88.7534 12.7486C88.7722 12.6491 88.7862 12.4992 88.7956 12.2988C88.8439 11.8709 88.877 11.4637 88.895 11.0773L88.9051 10.8626C88.8929 10.819 88.8902 10.7256 88.8969 10.5825L88.9209 10.0672C88.8806 10.0221 88.8614 9.9781 88.8634 9.93516C88.8727 9.73479 89.0559 9.60069 89.4129 9.53286C89.5991 9.48499 89.8616 9.46972 90.2005 9.48704C93.5043 9.65593 95.9698 9.89673 97.5969 10.2094C99.1958 10.5207 100.307 10.972 100.93 11.5634C101.2 11.8498 101.383 12.1819 101.478 12.5598C101.589 12.9241 101.632 13.3567 101.609 13.8576C101.571 14.6591 101.314 15.3202 100.837 15.841C100.526 16.1264 100.169 16.3592 99.7642 16.5393C99.8389 16.7583 100.066 17.2003 100.445 17.8653C100.525 17.9698 100.598 18.0811 100.663 18.1992C100.743 18.3181 100.836 18.4448 100.943 18.5793C101.194 18.9652 101.485 19.3889 101.818 19.8507C101.829 19.9086 101.88 20.0332 101.97 20.2243C102.039 20.2565 102.073 20.2941 102.071 20.337C102.084 20.3664 102.075 20.409 102.044 20.4648C101.923 20.6307 101.579 20.8642 101.013 21.1653C100.939 21.2332 100.851 21.3005 100.749 21.367C100.456 21.5815 100.057 21.7978 99.5512 22.0159C99.088 22.2361 98.6917 22.388 98.3623 22.4716C98.2319 22.5366 98.1536 22.547 98.1274 22.5026ZM94.6254 14.7488C94.8089 14.7581 95.0577 14.735 95.3717 14.6793C95.6722 14.6086 95.8879 14.5336 96.019 14.4542C96.2368 14.3362 96.427 14.2025 96.5897 14.053C96.7537 13.8748 96.8413 13.6641 96.8527 13.4208C96.8714 13.0201 96.7664 12.6919 96.5377 12.4364C96.334 12.2538 96.0768 12.1546 95.7661 12.1387L94.8555 12.0921C94.8468 12.2782 94.819 12.5709 94.7721 12.9702L94.7298 13.4199C94.6882 13.7047 94.6534 14.1477 94.6254 14.7488Z" fill="black"/>
<path d="M103.893 22.8416C103.865 22.8355 103.851 22.8029 103.849 22.7438C103.779 22.5962 103.743 22.4269 103.741 22.2357C103.714 22.1565 103.699 22.0578 103.695 21.9397C103.625 21.66 103.61 21.2901 103.651 20.83C103.734 20.1739 103.816 19.6569 103.897 19.2791C103.919 19.1081 103.961 18.8756 104.024 18.5817L104.132 18.0779C104.222 17.6581 104.286 17.3277 104.323 17.0867C104.363 16.8317 104.463 16.3334 104.622 15.5917C105.048 13.6045 105.418 12.0814 105.732 11.0224C105.768 10.8544 106.03 10.7809 106.517 10.8018L107.657 11.0564C108.444 11.2322 109.028 11.3773 109.409 11.4917C109.98 11.6633 110.563 11.8154 111.156 11.948C111.295 11.9789 111.4 11.995 111.472 11.9965L111.783 12.0659L111.868 12.173C112.345 12.1768 112.828 12.2188 113.318 12.2988C113.807 12.3787 114.397 12.4959 115.088 12.6501C115.115 12.6563 115.145 12.685 115.178 12.7362L115.841 12.8843C115.951 12.909 116.021 12.9905 116.049 13.1288C116.091 13.2702 116.107 13.4644 116.098 13.7116C116.114 13.9059 116.107 14.139 116.078 14.4111C116.058 14.7733 116.057 15.015 116.075 15.1362C115.991 15.528 115.879 15.7085 115.741 15.6777C115.728 15.6746 115.711 15.649 115.693 15.6008L115.614 15.5613C115.548 15.5319 115.471 15.5219 115.382 15.5314C115.29 15.5549 115.196 15.5558 115.099 15.5342C115.016 15.5157 114.952 15.4793 114.905 15.425C114.881 15.4048 114.82 15.3839 114.723 15.3623C114.599 15.3345 114.45 15.3231 114.275 15.3281C114.217 15.3298 114.102 15.3261 113.93 15.317C113.772 15.3111 113.589 15.285 113.382 15.2387C112.788 15.106 112.357 15.0244 112.089 14.9938C111.934 14.9738 111.78 14.9834 111.626 15.0225L111.635 14.9805C111.58 14.9682 111.517 15.0274 111.445 15.1581C111.298 15.3744 111.165 15.6894 111.047 16.103C111.007 16.2259 110.97 16.3643 110.937 16.5182C110.904 16.6721 110.902 16.7817 110.931 16.847C110.975 16.9153 111.052 16.9618 111.162 16.9865C111.245 17.005 111.32 16.9924 111.387 16.9488C111.415 16.9549 111.448 16.9697 111.486 16.9929C111.525 17.0162 111.555 17.0449 111.576 17.079L113.338 17.4724C113.357 17.4475 113.383 17.4311 113.413 17.4233C113.444 17.4155 113.473 17.4146 113.501 17.4208C113.639 17.4517 113.738 17.4958 113.798 17.5532C113.872 17.6137 114.028 17.6927 114.268 17.7902C114.406 17.8211 114.494 17.8846 114.531 17.9809C114.579 18.0943 114.594 18.193 114.576 18.277L114.714 19.7596C114.708 19.9927 114.469 20.0934 113.998 20.0616C113.724 20.0589 113.214 19.9743 112.468 19.8077L110.955 19.4699C110.762 19.4267 110.614 19.4083 110.511 19.4147C110.412 19.4071 110.339 19.4422 110.293 19.52C110.223 19.5776 110.171 19.6834 110.138 19.8373L110.12 19.9213C110.105 19.9913 110.102 20.0418 110.11 20.0729L109.99 20.53C109.955 20.6249 109.917 20.7703 109.875 20.9662L109.762 21.491C110.384 21.6298 111.024 21.7508 111.682 21.8538C112.326 21.9537 112.959 22.0731 113.581 22.2119C113.622 22.2212 113.649 22.2639 113.662 22.34C113.678 22.4022 113.676 22.4752 113.658 22.5592C113.668 22.6493 113.662 22.7434 113.641 22.8414C113.624 23.0574 113.623 23.2626 113.64 23.4569L113.654 24.098L113.515 24.7488L113.317 24.8587L113.11 24.8124C112.958 24.7785 112.863 24.7499 112.825 24.7266C112.789 24.6894 112.744 24.6646 112.689 24.6522C112.658 24.6601 112.612 24.6718 112.551 24.6874C112.49 24.7031 112.435 24.7203 112.388 24.739L112.41 24.6341L112.157 24.5995L111.846 24.5301C111.791 24.5178 111.753 24.4945 111.731 24.4604L111.57 24.4023C111.059 24.2882 110.689 24.257 110.461 24.3086L103.893 22.8416Z" fill="black"/>
<path d="M122.239 28.7726L121.83 28.489C121.434 28.2273 121.115 27.9853 120.872 27.7631C120.724 27.6786 120.609 27.5704 120.528 27.4386C120.443 27.3519 120.402 27.27 120.405 27.1929L121.065 24.572L121.109 24.4742C121.15 24.383 121.185 24.3208 121.216 24.2876C121.265 24.2474 121.324 24.2356 121.395 24.2524C122.086 24.9653 122.837 25.5094 123.648 25.8845C123.905 26.0036 124.102 26.1024 124.238 26.181C124.727 26.4073 125.11 26.5058 125.387 26.4767C125.538 26.4521 125.646 26.3681 125.71 26.2247C125.803 26.0162 125.815 25.817 125.744 25.6271C125.68 25.4242 125.549 25.214 125.351 24.9966L124.838 24.4761C124.675 24.3536 124.501 24.1867 124.316 23.9752C124.322 23.9622 124.318 23.9527 124.305 23.9467C124.298 23.9277 124.294 23.9022 124.293 23.8702C124.247 23.8333 124.167 23.7176 124.052 23.5228L123.962 23.4106C123.988 23.4225 124.004 23.4219 124.01 23.4089C124.016 23.3959 124.002 23.3739 123.969 23.343C123.942 23.2991 123.883 23.2242 123.79 23.1185C123.716 23.0057 123.658 22.8923 123.616 22.7784C123.529 22.6596 123.506 22.5546 123.547 22.4634L123.591 22.3656C123.269 22.2167 123.144 21.7498 123.216 20.9648C123.332 20.1847 123.454 19.6512 123.582 19.3645C124.125 18.1523 125.057 17.4585 126.378 17.2832C127.454 17.1358 128.767 17.3103 130.316 17.8067C131.316 18.1431 132.524 18.6388 133.94 19.2939C134.091 19.4424 134.215 19.547 134.312 19.6077C134.538 19.7279 134.658 19.8776 134.671 20.0567C134.68 20.1397 134.654 20.285 134.592 20.4924C134.538 20.7188 134.305 21.3428 133.894 22.3643C133.909 22.4023 133.904 22.4473 133.881 22.4995C133.834 22.6037 133.654 22.6229 133.342 22.5571C133.015 22.4533 132.807 22.3805 132.717 22.3389L132.247 22.1921C131.715 22.025 131.367 21.9188 131.2 21.8734C130.632 21.7205 130.192 21.7137 129.881 21.853C129.682 21.9499 129.545 22.0831 129.469 22.2525C129.428 22.3437 129.409 22.4214 129.411 22.4854C129.414 22.5495 129.452 22.6379 129.526 22.7507C129.612 22.8695 129.874 23.1872 130.311 23.704C130.787 24.2386 131.227 24.8514 131.633 25.5425C131.978 26.1266 132.128 26.7626 132.084 27.4504C132.09 27.7516 132.002 28.1043 131.821 28.5084C131.657 28.8733 131.472 29.1653 131.266 29.3843C130.546 30.0898 129.6 30.5018 128.428 30.6205C127.874 30.6787 127.326 30.6694 126.786 30.5924C126.239 30.5285 125.747 30.3953 125.309 30.1928L122.444 28.9384L122.239 28.7726Z" fill="black"/>
<path d="M136.008 36.3799C135.914 36.3162 135.792 36.2165 135.643 36.0811C135.576 36.0015 135.455 35.9018 135.278 35.7822C134.831 35.4792 134.344 35.0032 133.818 34.3543L133.695 34.2705C133.612 34.2147 133.54 34.1311 133.477 34.0197C133.469 33.9799 133.451 33.9421 133.424 33.9063C133.404 33.8586 133.383 33.8009 133.359 33.7333L133.129 33.2678C132.909 32.8261 132.781 32.335 132.745 31.7944C132.717 31.2419 132.766 30.6895 132.891 30.1373C133.105 29.1124 133.49 28.1772 134.046 27.3318C134.665 26.3912 135.448 25.6138 136.396 24.9998C137.399 24.3541 138.412 23.9906 139.435 23.9093C140.568 23.8164 141.588 24.0769 142.494 24.6909C142.776 24.8822 142.986 25.0417 143.123 25.1692C143.139 25.1453 143.165 25.1454 143.2 25.1693L143.253 25.2052C144.077 25.7634 144.793 26.2915 145.401 26.7896C145.899 27.2478 146.298 27.7673 146.596 28.3482C147.123 29.6172 147.345 30.7663 147.264 31.7955C147.152 32.924 146.723 34.0538 145.98 35.185C145.236 36.3161 144.274 37.1964 143.095 37.8259L142.731 37.992C142.637 38.0316 142.584 38.0473 142.572 38.0394L142.46 38.0928L142.29 38.0805C141.283 38.4997 140.177 38.4993 138.973 38.0794C138.197 37.7598 137.208 37.1933 136.008 36.3799ZM137.189 35.2438C137.295 35.3155 137.42 35.3059 137.565 35.2148C137.847 35.0961 138.239 34.7591 138.74 34.2038C138.822 34.1046 139.008 33.8864 139.298 33.5492C139.588 33.212 139.844 32.8866 140.067 32.5731C140.647 31.7953 140.999 31.3112 141.124 31.1207L141.488 30.567C141.77 30.1384 141.995 29.7573 142.163 29.4238C142.449 28.9117 142.633 28.4769 142.715 28.1193C142.703 27.9047 142.667 27.7774 142.609 27.7376C142.491 27.6578 142.32 27.6714 142.097 27.7782C141.874 27.885 141.576 28.1567 141.204 28.5931L138.954 31.1995L138.567 31.7889C138.273 32.3129 138.076 32.6523 137.974 32.8071L137.728 33.2597L137.405 33.8671C137.342 33.9623 137.299 34.0536 137.276 34.141L137.035 34.9334C137.016 34.989 137.022 35.0447 137.053 35.1004C137.096 35.1641 137.142 35.2119 137.189 35.2438Z" fill="black"/>
<path d="M150.182 47.9381C150.158 47.0567 150.204 46.2352 150.322 45.4735C150.384 44.9559 150.544 44.0872 150.804 42.8676L150.943 42.1968C150.943 42.1765 150.938 42.1614 150.928 42.1514C150.938 42.1412 150.943 42.136 150.943 42.136L150.866 42.061L150.776 42.0319C150.638 42.1553 150.289 42.5097 149.729 43.0949C149.365 43.4748 148.917 43.9014 148.385 44.3748L147.927 44.8218C147.779 44.8948 147.699 44.9263 147.689 44.9163L147.537 44.7663C146.341 43.7488 145.489 42.9901 144.981 42.4902L144.463 41.9804C144.351 41.8704 144.275 41.7853 144.234 41.725L144.127 41.6201L143.802 41.0012L143.875 40.8634C143.855 40.8434 143.859 40.8079 143.888 40.7568C143.928 40.7157 143.957 40.6849 143.977 40.6644C144.359 40.2032 144.633 39.865 144.8 39.65C145.29 39.0556 145.653 38.625 145.888 38.3583C146.104 38.0919 146.246 37.9228 146.315 37.8509L147.05 36.9289L147.477 36.4519C147.555 36.3495 147.673 36.2161 147.83 36.0519L147.963 35.9132C148.032 35.8819 148.121 35.8098 148.229 35.6968L148.48 35.435C148.529 35.4039 148.579 35.3627 148.628 35.3114L148.73 35.1732L148.878 35.0192C148.947 34.9473 148.991 34.8809 149.01 34.8198L149.098 34.7274L149.482 34.3574C149.561 34.2955 149.669 34.1927 149.807 34.0489C150.122 33.7609 150.412 33.4783 150.677 33.2011L150.825 33.0471C150.844 33.0063 150.903 32.9345 151.001 32.8319L151.355 32.4623C151.354 32.4015 151.368 32.3557 151.398 32.3249C151.536 32.1811 151.761 32.2034 152.074 32.3917C152.245 32.4806 152.453 32.645 152.696 32.885C155.073 35.2243 156.772 37.0559 157.793 38.3799C158.794 39.6838 159.337 40.7659 159.42 41.6262C159.437 42.0212 159.358 42.3922 159.184 42.7391C159.029 43.0858 158.78 43.4388 158.436 43.7981C157.886 44.3731 157.261 44.6957 156.563 44.7659C156.143 44.7716 155.722 44.7064 155.3 44.5702C155.214 44.7842 155.097 45.2671 154.949 46.0191C154.941 46.1509 154.923 46.2829 154.895 46.415C154.878 46.5572 154.865 46.7144 154.858 46.8868C154.795 47.3437 154.739 47.8562 154.688 48.4244C154.659 48.4755 154.616 48.6028 154.559 48.8062C154.59 48.8767 154.591 48.9274 154.562 48.9582C154.552 48.9887 154.518 49.0145 154.458 49.0356C154.259 49.0789 153.848 49.0236 153.226 48.8699C153.126 48.8712 153.016 48.8626 152.896 48.8439C152.535 48.8082 152.094 48.7027 151.571 48.5274C151.079 48.382 150.682 48.2303 150.379 48.0722C150.239 48.0336 150.173 47.9889 150.182 47.9381ZM152.599 39.7878C152.731 39.9178 152.933 40.067 153.206 40.2356C153.478 40.384 153.689 40.4723 153.84 40.5007C154.08 40.5583 154.311 40.5855 154.531 40.5826C154.77 40.5591 154.974 40.46 155.141 40.2855C155.416 39.998 155.551 39.682 155.545 39.3375C155.511 39.0644 155.382 38.8178 155.158 38.5979L154.503 37.9531C154.375 38.0866 154.164 38.287 153.868 38.5545L153.543 38.8629C153.326 39.0483 153.011 39.3566 152.599 39.7878Z" fill="black"/>
<path d="M159.31 59.555C159.44 58.6837 159.63 57.8841 159.879 57.1561C160.03 56.658 160.341 55.8325 160.81 54.6796L161.064 54.0449C161.068 54.0249 161.065 54.009 161.057 53.9974C161.068 53.9891 161.074 53.9849 161.074 53.9849L161.012 53.8974L160.928 53.8525C160.771 53.9491 160.365 54.2349 159.711 54.7098C159.286 55.018 158.771 55.3571 158.164 55.7271L157.635 56.0845C157.476 56.1295 157.392 56.1462 157.384 56.1345L157.26 55.9596C156.26 54.7437 155.554 53.8443 155.142 53.2613L154.721 52.6667C154.63 52.5384 154.57 52.441 154.54 52.3744L154.453 52.2519L154.241 51.5848L154.337 51.4623C154.321 51.439 154.331 51.4049 154.369 51.3599C154.415 51.3265 154.449 51.3015 154.472 51.2849C154.929 50.9 155.259 50.6167 155.46 50.4351C156.047 49.9386 156.479 49.5803 156.758 49.3604C157.017 49.1371 157.186 48.9963 157.267 48.938L158.152 48.1632L158.656 47.7708C158.751 47.6842 158.89 47.5742 159.073 47.4409L159.228 47.3284C159.302 47.3101 159.402 47.2551 159.529 47.1635L159.821 46.951C159.875 46.9293 159.931 46.8977 159.988 46.856L160.114 46.7386L160.286 46.6136C160.366 46.5553 160.421 46.4978 160.45 46.4411L160.554 46.3662L160.996 46.0712C161.085 46.0246 161.21 45.9429 161.37 45.8263C161.731 45.5996 162.066 45.3739 162.376 45.1489L162.548 45.0239C162.574 44.9873 162.645 44.9273 162.76 44.844L163.173 44.5441C163.182 44.4841 163.204 44.4416 163.239 44.4166C163.399 44.3 163.617 44.3624 163.892 44.6039C164.046 44.7221 164.221 44.9212 164.419 45.201C166.351 47.9293 167.703 50.0364 168.477 51.5222C169.235 52.9847 169.579 54.1466 169.511 55.0079C169.458 55.3993 169.316 55.75 169.084 56.0599C168.871 56.3732 168.564 56.6756 168.162 56.9672C167.52 57.4337 166.848 57.6387 166.148 57.5822C165.734 57.5123 165.331 57.3725 164.939 57.1627C164.817 57.3576 164.617 57.8116 164.34 58.5246C164.309 58.6529 164.268 58.7795 164.218 58.9044C164.175 59.0411 164.136 59.1935 164.098 59.3617C163.957 59.7999 163.811 60.2938 163.662 60.8436C163.624 60.8886 163.56 61.006 163.469 61.196C163.487 61.2709 163.479 61.3209 163.444 61.3459C163.43 61.3742 163.391 61.3934 163.329 61.4034C163.125 61.4101 162.73 61.2819 162.144 61.0188C162.046 61.0022 161.939 60.9739 161.824 60.9339C161.475 60.834 161.059 60.6508 160.575 60.3844C160.116 60.1529 159.751 59.9323 159.481 59.7224C159.349 59.6591 159.292 59.6033 159.31 59.555ZM163.116 51.973C163.223 52.1246 163.396 52.3078 163.635 52.5226C163.877 52.7175 164.07 52.8424 164.213 52.8973C164.44 52.9973 164.662 53.0655 164.879 53.1021C165.119 53.1221 165.336 53.0612 165.532 52.9196C165.853 52.6863 166.041 52.3997 166.096 52.0599C166.11 51.785 166.026 51.5193 165.844 51.2628L165.312 50.5108C165.163 50.6191 164.919 50.7782 164.581 50.9882L164.207 51.2331C163.961 51.3765 163.597 51.6231 163.116 51.973Z" fill="black"/>
<path d="M162.966 71.2675C162.93 71.1897 162.89 70.9709 162.846 70.6109C162.835 70.553 162.83 70.46 162.832 70.3318C162.828 70.2227 162.808 70.1293 162.771 70.0516C162.747 69.9998 162.736 69.8938 162.739 69.7336C162.761 69.6123 162.753 69.5128 162.717 69.435L162.665 69.1742C162.628 69.0965 162.61 69.0416 162.611 69.0096C162.593 68.9707 162.59 68.9482 162.603 68.9421C162.497 68.4846 162.447 67.9931 162.45 67.4676L162.375 65.9564C162.37 65.8473 162.413 65.7713 162.502 65.7285C162.579 65.6918 162.664 65.6745 162.759 65.6766L163.905 65.7698C164.208 65.7831 164.58 65.8267 165.022 65.9008C165.154 65.9487 165.356 65.9629 165.628 65.9434C165.843 65.9354 165.97 65.9223 166.008 65.9039C166.287 65.532 166.567 65.0961 166.848 64.5961C167.219 64.0532 167.445 63.6513 167.526 63.3903C167.577 63.3338 167.652 63.2265 167.75 63.0685C168.01 62.6897 168.13 62.513 168.111 62.5382L168.53 61.9323C168.615 61.7804 168.755 61.5784 168.949 61.3265C169.04 61.1875 169.16 61.0268 169.309 60.8442C169.446 60.6358 169.53 60.5159 169.563 60.4846C169.629 60.3259 169.853 60.004 170.235 59.5191C170.636 59.041 170.888 58.7775 170.99 58.7285C171.041 58.704 171.129 58.7253 171.254 58.7922C171.392 58.853 171.536 58.9268 171.686 59.0135C172.072 59.3363 172.315 59.5533 172.414 59.6645C172.57 59.7962 172.7 59.9081 172.806 60.0003C172.918 60.1054 173.011 60.1876 173.086 60.247C173.366 60.4776 173.733 60.8096 174.186 61.2429C174.286 61.3221 174.503 61.5193 174.839 61.8346C174.944 61.9587 175.024 62.0791 175.079 62.1957C175.115 62.2735 175.12 62.3505 175.093 62.4268C175.092 62.4909 175.026 62.6176 174.896 62.807L173.761 64.1851C173.139 64.9594 172.724 65.4917 172.516 65.7818C172.49 65.8261 172.451 65.8765 172.4 65.933C172.361 65.9834 172.335 66.0277 172.321 66.0659C172.256 66.1926 172.238 66.2883 172.269 66.3531C172.287 66.392 172.321 66.4152 172.372 66.4227C172.428 66.4432 172.472 66.4538 172.504 66.4546L176.55 66.1326C176.74 66.1049 176.92 66.1538 177.088 66.2794C177.244 66.3791 177.358 66.5387 177.43 66.7582C177.557 67.729 177.632 68.455 177.654 68.9362C177.706 69.8797 177.699 70.5974 177.632 71.0895C177.629 71.2496 177.586 71.3737 177.502 71.4615C177.437 71.5562 177.351 71.6055 177.243 71.6095C177.122 71.6516 177.011 71.6651 176.91 71.65L176.626 71.6436L168.525 71.72L168.069 71.7482L163.596 71.5605C163.401 71.5433 163.259 71.5081 163.172 71.4548C163.077 71.4206 163.009 71.3582 162.966 71.2675Z" fill="black"/>
</svg>
